<svg width="24" height="22" viewBox="0 0 24 22" fill="none" xmlns="http://www.w3.org/2000/svg">
<path d="M22.6667 18.9999C23.0065 19.0003 23.3334 19.1304 23.5805 19.3637C23.8276 19.597 23.9763 19.9159 23.9962 20.2551C24.0161 20.5944 23.9058 20.9284 23.6876 21.189C23.4695 21.4496 23.1601 21.6171 22.8227 21.6573L22.6667 21.6666H1.33333C0.993494 21.6662 0.666624 21.5361 0.419509 21.3028C0.172394 21.0695 0.0236867 20.7506 0.00377051 20.4114C-0.0161457 20.0721 0.0942328 19.7381 0.312353 19.4775C0.530474 19.2169 0.839872 19.0494 1.17733 19.0093L1.33333 18.9999H22.6667ZM22.6667 9.66659C23.0203 9.66659 23.3594 9.80706 23.6095 10.0571C23.8595 10.3072 24 10.6463 24 10.9999C24 11.3535 23.8595 11.6927 23.6095 11.9427C23.3594 12.1928 23.0203 12.3333 22.6667 12.3333H1.33333C0.979711 12.3333 0.640573 12.1928 0.390524 11.9427C0.140476 11.6927 0 11.3535 0 10.9999C0 10.6463 0.140476 10.3072 0.390524 10.0571C0.640573 9.80706 0.979711 9.66659 1.33333 9.66659H22.6667ZM22.6667 0.333252C23.0203 0.333252 23.3594 0.473728 23.6095 0.723777C23.8595 0.973825 24 1.31296 24 1.66659C24 2.02021 23.8595 2.35935 23.6095 2.60939C23.3594 2.85944 23.0203 2.99992 22.6667 2.99992H1.33333C0.979711 2.99992 0.640573 2.85944 0.390524 2.60939C0.140476 2.35935 0 2.02021 0 1.66659C0 1.31296 0.140476 0.973825 0.390524 0.723777C0.640573 0.473728 0.979711 0.333252 1.33333 0.333252H22.6667Z" fill="white"/>
</svg>
