<svg width="48" height="48" viewBox="0 0 48 48" fill="none" xmlns="http://www.w3.org/2000/svg">
<path fill-rule="evenodd" clip-rule="evenodd" d="M24.0001 25.4139L29.6571 31.0709C29.8457 31.2531 30.0983 31.3539 30.3605 31.3516C30.6227 31.3493 30.8735 31.2441 31.0589 31.0587C31.2443 30.8733 31.3495 30.6225 31.3517 30.3603C31.354 30.0981 31.2532 29.8455 31.0711 29.6569L25.4141 23.9999L31.0711 18.3429C31.2532 18.1543 31.354 17.9017 31.3517 17.6395C31.3495 17.3773 31.2443 17.1265 31.0589 16.9411C30.8735 16.7557 30.6227 16.6505 30.3605 16.6482C30.0983 16.646 29.8457 16.7467 29.6571 16.9289L24.0001 22.5859L18.3431 16.9289C18.1536 16.7512 17.9025 16.6543 17.6428 16.6585C17.3831 16.6627 17.1353 16.7678 16.9517 16.9515C16.7681 17.1352 16.6632 17.3831 16.6592 17.6428C16.6551 17.9025 16.7523 18.1536 16.9301 18.3429L22.5861 23.9999L16.9291 29.6569C16.8336 29.7492 16.7574 29.8595 16.705 29.9815C16.6526 30.1035 16.625 30.2347 16.6238 30.3675C16.6227 30.5003 16.648 30.632 16.6982 30.7549C16.7485 30.8778 16.8228 30.9894 16.9167 31.0833C17.0106 31.1772 17.1222 31.2514 17.2451 31.3017C17.368 31.352 17.4997 31.3773 17.6325 31.3762C17.7652 31.375 17.8965 31.3474 18.0185 31.295C18.1405 31.2426 18.2508 31.1664 18.3431 31.0709L24.0001 25.4139Z" fill="#333333"/>
</svg>
