<svg width="31" height="32" viewBox="0 0 31 32" fill="none" xmlns="http://www.w3.org/2000/svg">
<path d="M8.22826 20.5L1.40326 8.71C1.10897 8.20131 0.970559 7.61738 1.00523 7.03072C1.03989 6.44405 1.24611 5.88049 1.59826 5.41L4.01326 2.2C4.29271 1.82741 4.65506 1.525 5.07162 1.31672C5.48819 1.10844 5.94753 1 6.41326 1H24.4133C24.879 1 25.3383 1.10844 25.7549 1.31672C26.1715 1.525 26.5338 1.82741 26.8133 2.2L29.2133 5.41C29.5678 5.87898 29.7766 6.44177 29.814 7.02846C29.8513 7.61514 29.7154 8.19987 29.4233 8.71L22.5983 20.5M13.9133 16L5.09326 1.3M16.9133 16L25.7333 1.3M9.41326 8.5H21.4133" stroke="white" stroke-width="2" stroke-linecap="round" stroke-linejoin="round"/>
<path d="M15.4131 31C19.5552 31 22.9131 27.6421 22.9131 23.5C22.9131 19.3579 19.5552 16 15.4131 16C11.271 16 7.91309 19.3579 7.91309 23.5C7.91309 27.6421 11.271 31 15.4131 31Z" stroke="white" stroke-width="2" stroke-linecap="round" stroke-linejoin="round"/>
<path d="M15.4131 25V22H14.6631" stroke="white" stroke-width="2" stroke-linecap="round" stroke-linejoin="round"/>
</svg>
