<svg width="58" height="58" viewBox="0 0 58 58" fill="none" xmlns="http://www.w3.org/2000/svg">
<rect width="58" height="58" rx="24" fill="#5DA1F8"/>
<path d="M26.9342 32.4026H30.0307C30.852 32.4026 31.6396 32.0763 32.2203 31.4956C32.801 30.9149 33.1272 30.1273 33.1272 29.3061C33.1272 28.4849 32.801 27.6972 32.2203 27.1165C31.6396 26.5358 30.852 26.2096 30.0307 26.2096H25.386C24.4571 26.2096 23.6829 26.5193 23.2185 27.1386L14.5483 35.499" stroke="white" stroke-width="2" stroke-linecap="round" stroke-linejoin="round"/>
<path d="M20.7412 41.692L23.2184 39.5245C23.6828 38.9052 24.457 38.5955 25.3859 38.5955H31.5789C33.2819 38.5955 34.8302 37.9762 35.9139 36.7376L43.0358 29.9254C43.6333 29.3608 43.982 28.582 44.0052 27.7603C44.0284 26.9386 43.7243 26.1413 43.1597 25.5439C42.5951 24.9464 41.8163 24.5977 40.9946 24.5745C40.1729 24.5513 39.3756 24.8554 38.7782 25.42L32.2756 31.4581M13 33.9508L22.2894 43.2402" stroke="white" stroke-width="2" stroke-linecap="round" stroke-linejoin="round"/>
<path d="M40.094 23.8873C41.1778 22.8035 42.4164 21.4101 42.4164 19.707C42.5246 18.7609 42.3101 17.806 41.8078 16.997C41.3055 16.188 40.5447 15.5724 39.6487 15.2499C38.7527 14.9273 37.7741 14.9168 36.8714 15.2199C35.9687 15.5231 35.1948 16.1222 34.6752 16.9202C34.1225 16.1841 33.3484 15.6446 32.4665 15.3809C31.5847 15.1172 30.6415 15.1431 29.7754 15.4549C28.9094 15.7666 28.1661 16.3478 27.6547 17.1132C27.1433 17.8785 26.8907 18.7876 26.934 19.707C26.934 21.5649 28.1726 22.8035 29.2563 24.0421L34.6752 29.3061L40.094 23.8873Z" stroke="white" stroke-width="2" stroke-linecap="round" stroke-linejoin="round"/>
</svg>
