<svg width="32" height="32" viewBox="0 0 32 32" fill="none" xmlns="http://www.w3.org/2000/svg">
<g clip-path="url(#clip0_1012_1080)">
<path d="M23.2959 19.176C22.8999 18.9774 20.9519 18.02 20.5893 17.8867C20.2253 17.7547 19.9613 17.6894 19.6959 18.0867C19.4333 18.4827 18.6733 19.3747 18.4426 19.6387C18.2119 19.904 17.9799 19.936 17.5839 19.7387C17.1879 19.5387 15.9106 19.1214 14.3973 17.772C13.2199 16.7214 12.4239 15.424 12.1933 15.0267C11.9626 14.6307 12.1693 14.416 12.3666 14.2187C12.5453 14.0414 12.7639 13.756 12.9613 13.5254C13.1586 13.2947 13.2253 13.128 13.3586 12.8627C13.4906 12.5987 13.4253 12.368 13.3253 12.1694C13.2253 11.9707 12.4333 10.02 12.1039 9.22671C11.7813 8.45471 11.4546 8.56005 11.2119 8.54671C10.9587 8.53671 10.7053 8.53227 10.4519 8.53338C10.1879 8.53338 9.75859 8.63205 9.39593 9.02938C9.03326 9.42538 8.00926 10.384 8.00926 12.3347C8.00926 14.284 9.42926 16.168 9.62659 16.4334C9.82393 16.6987 12.4213 20.7 16.3959 22.416C17.3413 22.824 18.0786 23.068 18.6546 23.2494C19.6039 23.552 20.4679 23.5094 21.1493 23.4067C21.9106 23.2934 23.4933 22.448 23.8239 21.5227C24.1546 20.5974 24.1546 19.804 24.0546 19.6387C23.9559 19.4734 23.6933 19.3747 23.2959 19.176ZM16.0666 29.0467H16.0613C13.701 29.0469 11.384 28.4123 9.35326 27.2094L8.87193 26.924L3.88393 28.2334L5.21459 23.3694L4.90126 22.8707C3.58185 20.7697 2.88385 18.3383 2.88793 15.8574C2.88926 8.59071 8.80259 2.67871 16.0719 2.67871C19.5919 2.67871 22.9013 4.05205 25.3893 6.54271C26.6171 7.76465 27.5903 9.21809 28.2525 10.8188C28.9146 12.4196 29.2525 14.1358 29.2466 15.868C29.2426 23.1347 23.3306 29.0467 16.0666 29.0467ZM27.2839 4.65071C25.8146 3.17224 24.0666 1.99992 22.1412 1.20163C20.2157 0.403336 18.151 -0.00507365 16.0666 4.7572e-05C7.32659 4.7572e-05 0.213261 7.11338 0.209261 15.856C0.209261 18.6507 0.938594 21.3787 2.32659 23.7827L0.0759277 32L8.48259 29.7947C10.8078 31.0603 13.4126 31.724 16.0599 31.7254H16.0666C24.8053 31.7254 31.9199 24.612 31.9239 15.868C31.9304 13.7844 31.5237 11.7201 30.7273 9.79471C29.9308 7.86928 28.7605 6.1209 27.2839 4.65071Z" fill="white"/>
</g>
<defs>
<clipPath id="clip0_1012_1080">
<rect width="32" height="32" fill="white"/>
</clipPath>
</defs>
</svg>
