<svg width="33" height="31" viewBox="0 0 33 31" fill="none" xmlns="http://www.w3.org/2000/svg">
<path d="M14.9342 18.4026H18.0307C18.852 18.4026 19.6396 18.0763 20.2203 17.4956C20.801 16.9149 21.1272 16.1273 21.1272 15.3061C21.1272 14.4849 20.801 13.6972 20.2203 13.1165C19.6396 12.5358 18.852 12.2096 18.0307 12.2096H13.386C12.4571 12.2096 11.6829 12.5193 11.2185 13.1386L2.54834 21.499" stroke="#2463EB" stroke-width="2" stroke-linecap="round" stroke-linejoin="round"/>
<path d="M8.74119 27.692L11.2184 25.5245C11.6828 24.9052 12.457 24.5955 13.3859 24.5955H19.5789C21.2819 24.5955 22.8302 23.9762 23.9139 22.7376L31.0358 15.9254C31.6333 15.3608 31.982 14.582 32.0052 13.7603C32.0284 12.9386 31.7243 12.1413 31.1597 11.5439C30.5951 10.9464 29.8163 10.5977 28.9946 10.5745C28.1729 10.5513 27.3756 10.8554 26.7782 11.42L20.2756 17.4581M1 19.9508L10.2894 29.2402" stroke="#2463EB" stroke-width="2" stroke-linecap="round" stroke-linejoin="round"/>
<path d="M28.094 9.88725C29.1778 8.80349 30.4164 7.41007 30.4164 5.70701C30.5246 4.76092 30.3101 3.80601 29.8078 2.99703C29.3055 2.18805 28.5447 1.5724 27.6487 1.24985C26.7527 0.927303 25.7741 0.916759 24.8714 1.21993C23.9687 1.52309 23.1948 2.12221 22.6752 2.92018C22.1225 2.18412 21.3484 1.64463 20.4665 1.3809C19.5847 1.11717 18.6415 1.14309 17.7754 1.45487C16.9094 1.76665 16.1661 2.34785 15.6547 3.11316C15.1433 3.87847 14.8907 4.78757 14.934 5.70701C14.934 7.5649 16.1726 8.80349 17.2563 10.0421L22.6752 15.3061L28.094 9.88725Z" stroke="#2463EB" stroke-width="2" stroke-linecap="round" stroke-linejoin="round"/>
</svg>
